<svg width="172" height="32" viewBox="0 0 172 32" fill="none" xmlns="http://www.w3.org/2000/svg">
<path d="M165.884 5.7513C166.124 5.7513 166.327 5.74089 166.493 5.72005C166.66 5.69922 166.801 5.66797 166.915 5.6263C167.129 5.54297 167.275 5.43359 167.353 5.29818C167.436 5.15755 167.478 5.0013 167.478 4.81901C167.478 4.66797 167.447 4.52734 167.379 4.41276C167.316 4.29297 167.207 4.19922 167.051 4.13151C166.952 4.08464 166.827 4.05339 166.676 4.02734C166.525 4.00651 166.337 3.99609 166.113 3.99609H165.368V5.7513H165.884ZM168.556 4.83984C168.556 5.24089 168.447 5.57943 168.223 5.86068C168.004 6.13672 167.66 6.34505 167.197 6.47526V6.49609L168.905 8.85026H167.645L166.087 6.63151H165.368V8.85026H164.316V3.12109H166.061C166.348 3.12109 166.618 3.13672 166.863 3.16797C167.113 3.20443 167.327 3.2513 167.504 3.31901C167.837 3.44401 168.098 3.63672 168.28 3.88672C168.462 4.14193 168.556 4.45964 168.556 4.83984Z" fill="black"/>
<path d="M24.5625 30.3242H24.8542V30.6367H14.6042V30.3242H14.8958C15.3646 30.3242 15.7135 30.1784 15.9375 29.8867C16.1719 29.5951 16.2917 29.3242 16.2917 29.0742C16.2917 28.8138 16.2344 28.5482 16.125 28.2826L14.5417 24.3451H7.04167L5.35417 28.2826C5.25521 28.5638 5.20833 28.8242 5.20833 29.0742C5.20833 29.3242 5.32292 29.5951 5.5625 29.8867C5.79687 30.1784 6.14583 30.3242 6.60417 30.3242H6.875V30.6367H0V30.3242H0.291667C0.78125 30.3242 1.26042 30.1732 1.75 29.8659C2.25 29.5638 2.65625 29.1107 2.97917 28.5117L10.3958 11.7201C11.4062 9.59505 11.9479 8.19401 12.0208 7.51172H12.2917L21.8333 28.4492C22.1667 29.0742 22.5729 29.5482 23.0625 29.8659C23.5469 30.1732 24.0469 30.3242 24.5625 30.3242ZM7.58333 22.9909H14L10.8958 15.0951L7.58333 22.9909Z" fill="black"/>
<path d="M48.4336 30.3242H48.8919V30.6367H39.9544V30.3242H40.4128C40.8138 30.3242 41.1055 30.1888 41.2878 29.9076C41.4648 29.6159 41.5378 29.3242 41.4961 29.0326L40.2461 19.8451L35.1419 27.9701C34.3607 29.194 33.9753 30.2826 33.9753 31.2409H33.6836L26.2669 20.0117L25.1836 29.0326C25.1419 29.3242 25.2096 29.6159 25.3919 29.9076C25.5846 30.1888 25.8763 30.3242 26.2669 30.3242H26.7253V30.6367H20.6211V30.3242H21.0586C21.6003 30.3242 22.0638 30.1732 22.4544 29.8659C22.8555 29.5482 23.0846 29.1159 23.1419 28.5742L25.6628 10.9492H25.9128L34.9961 24.5326L43.5169 10.9492H43.8086L46.3711 28.7409C46.4805 29.2305 46.7305 29.6159 47.1211 29.9076C47.5065 30.1888 47.944 30.3242 48.4336 30.3242Z" fill="black"/>
<path d="M46.6523 20.9909C46.6523 17.9076 47.6836 15.4648 49.7565 13.6576C51.8242 11.8555 54.5742 10.9492 58.0065 10.9492C61.4492 10.9492 64.2044 11.8555 66.2773 13.6576C68.3607 15.4648 69.4023 17.9076 69.4023 20.9909C69.4023 24.0742 68.3607 26.5273 66.2773 28.3451C64.2044 30.1523 61.4544 31.0534 58.0273 31.0534C54.5951 31.0534 51.8398 30.1523 49.7565 28.3451C47.6836 26.5273 46.6523 24.0742 46.6523 20.9909ZM51.569 21.0117C51.569 23.7096 52.1523 25.8398 53.319 27.4076C54.4857 28.9805 56.0482 29.7617 58.0065 29.7617C59.9648 29.7617 61.5273 28.9805 62.694 27.4076C63.8607 25.8398 64.444 23.7096 64.444 21.0117C64.444 18.3034 63.8607 16.168 62.694 14.5951C61.5273 13.0117 59.9648 12.2201 58.0065 12.2201C56.0482 12.2201 54.4857 13.0117 53.319 14.5951C52.1523 16.168 51.569 18.3034 51.569 21.0117Z" fill="black"/>
<path d="M76.5482 12.6797H75.5273V28.6172C75.5273 29.1328 75.6992 29.5495 76.0482 29.8672C76.4076 30.1745 76.8086 30.3255 77.2565 30.3255H77.6107V30.638H68.7773V30.3255H69.1732C69.6419 30.3255 70.0378 30.1693 70.3607 29.8464C70.694 29.513 70.8607 29.112 70.8607 28.638V13.3464C70.8607 12.8776 70.694 12.4818 70.3607 12.1589C70.0378 11.8411 69.6523 11.6797 69.194 11.6797H68.7773V11.3672H78.6523C80.569 11.3672 82.1784 11.7422 83.4857 12.4922C84.944 13.3255 85.6732 14.7109 85.6732 16.638C85.6732 17.8776 85.2982 18.9922 84.5482 19.9922C83.7982 20.9922 82.6836 21.5964 81.2148 21.8047C81.7982 22.0026 82.3659 22.3672 82.9232 22.9089C83.4909 23.4401 83.9492 23.9818 84.2982 24.5339C84.9753 25.7578 85.694 26.8776 86.444 27.888C87.194 28.9036 87.7982 29.5651 88.2565 29.8672C88.7253 30.1745 89.2878 30.3255 89.944 30.3255V30.638H87.2565C85.4753 30.638 84.1107 30.4245 83.1523 29.9922C82.2044 29.5651 81.3607 28.7526 80.6107 27.5547C79.444 25.7109 78.7201 24.2526 78.444 23.1797C78.194 22.5443 77.8867 22.0651 77.5273 21.7422C77.1784 21.4245 76.8451 21.2422 76.5273 21.2005V20.9297H77.319C79.1367 20.9193 80.2565 19.8464 80.6732 17.7214C80.7565 17.4036 80.7982 17.1276 80.7982 16.888C80.7982 16.6536 80.7826 16.3255 80.7565 15.9089C80.7409 15.4922 80.6107 15.0234 80.3607 14.4922C80.1107 13.9661 79.7982 13.5859 79.4232 13.3464C78.7565 12.9453 78.069 12.737 77.3607 12.7214C77.1211 12.6953 76.8503 12.6797 76.5482 12.6797Z" fill="black"/>
<path d="M101.004 16.0117V15.6992C101.004 14.7826 100.743 14.0534 100.233 13.5117C99.7174 12.9596 98.9883 12.668 98.0456 12.6367H93.4206V20.4492H97.1081C98.1185 20.4388 98.8372 20.0221 99.2539 19.1992C99.4466 18.8138 99.5456 18.3815 99.5456 17.9076V17.6992H99.8997V24.4909H99.5456V24.2826C99.5456 23.2721 99.1706 22.543 98.4206 22.0951C98.056 21.8607 97.6341 21.7409 97.1497 21.7409H93.4206V28.6159C93.431 29.1055 93.6081 29.5117 93.9414 29.8451C94.2747 30.168 94.6914 30.3242 95.1914 30.3242H95.5664V30.6367H86.6289V30.3242H87.0247C87.5091 30.3242 87.9206 30.168 88.2539 29.8451C88.5872 29.5117 88.7643 29.1107 88.7956 28.6367V13.3451C88.7956 12.8763 88.6185 12.4805 88.2747 12.1576C87.9258 11.8398 87.5091 11.6784 87.0247 11.6784H86.6289V11.3659H97.9831C99.4102 11.3659 100.535 11.2096 101.358 10.8867V16.0117H101.004Z" fill="black"/>
<path d="M121.676 11.6797H121.238C120.822 11.6797 120.473 11.8047 120.197 12.0547C119.915 12.3047 119.77 12.6172 119.759 12.9922V23.638C119.759 25.9453 119.051 27.7578 117.634 29.0755C116.217 30.3984 114.113 31.0547 111.322 31.0547C108.53 31.0547 106.353 30.4193 104.801 29.138C103.243 27.8464 102.467 26.0339 102.467 23.7005V13.0339C102.467 12.6484 102.322 12.3255 102.03 12.0755C101.749 11.8151 101.405 11.6797 100.988 11.6797H100.551V11.3672H108.988V11.6797H108.551C108.134 11.6797 107.785 11.8151 107.509 12.0755C107.228 12.3255 107.092 12.6484 107.092 13.0339V23.4714C107.092 25.4453 107.54 26.987 108.447 28.0964C109.363 29.2109 110.645 29.763 112.301 29.763C113.952 29.763 115.249 29.2422 116.197 28.2005C117.155 27.1484 117.634 25.6901 117.634 23.8255V13.0339C117.603 12.6328 117.452 12.3047 117.176 12.0547C116.895 11.8047 116.556 11.6797 116.155 11.6797H115.738V11.3672H121.676V11.6797Z" fill="black"/>
<path d="M146.871 30.3242H147.329V30.6367H138.392V30.3242H138.85C139.251 30.3242 139.543 30.1888 139.725 29.9076C139.902 29.6159 139.975 29.3242 139.934 29.0326L138.684 19.8451L133.579 27.9701C132.798 29.194 132.413 30.2826 132.413 31.2409H132.121L124.704 20.0117L123.621 29.0326C123.579 29.3242 123.647 29.6159 123.829 29.9076C124.022 30.1888 124.314 30.3242 124.704 30.3242H125.163V30.6367H119.059V30.3242H119.496C120.038 30.3242 120.501 30.1732 120.892 29.8659C121.293 29.5482 121.522 29.1159 121.579 28.5742L124.1 10.9492H124.35L133.434 24.5326L141.954 10.9492H142.246L144.809 28.7409C144.918 29.2305 145.168 29.6159 145.559 29.9076C145.944 30.1888 146.382 30.3242 146.871 30.3242Z" fill="black"/>
<path d="M160.193 30.6367H145.047V30.3242H145.443C145.927 30.3242 146.339 30.168 146.672 29.8451C147.005 29.5117 147.182 29.1107 147.214 28.6367V13.3451C147.182 12.8763 147.005 12.4805 146.672 12.1576C146.339 11.8398 145.927 11.6784 145.443 11.6784H145.047V11.3659H156.359C156.943 11.3659 157.573 11.3138 158.255 11.1992C158.948 11.0898 159.432 10.9857 159.714 10.8867V15.9909H159.38V15.6992C159.38 14.7565 159.12 14.0221 158.609 13.4909C158.094 12.9492 157.38 12.668 156.464 12.6367H151.839V20.4492H155.505C156.224 20.4388 156.807 20.194 157.255 19.7201C157.714 19.2513 157.943 18.6471 157.943 17.9076V17.6992H158.255V24.4909H157.943V24.2826C157.943 23.2721 157.568 22.543 156.818 22.0951C156.427 21.8607 155.995 21.7409 155.526 21.7409H151.839V29.3451H155.693C157.01 29.3346 158.135 28.9232 159.068 28.1159C160.01 27.3138 160.693 26.1784 161.109 24.7201H161.401L160.193 30.6367Z" fill="black"/>
<mask id="mask0_1671_74" style="mask-type:luminance" maskUnits="userSpaceOnUse" x="69" y="0" width="34" height="12">
<path d="M69.2617 0.621094H102.595V11.2878H69.2617V0.621094Z" fill="white"/>
</mask>
<g mask="url(#mask0_1671_74)">
<mask id="mask1_1671_74" style="mask-type:luminance" maskUnits="userSpaceOnUse" x="69" y="0" width="34" height="12">
<path d="M69.5742 2.8125L101.335 0.03125L102.121 8.96354L70.3555 11.7448L69.5742 2.8125Z" fill="white"/>
</mask>
<g mask="url(#mask1_1671_74)">
<mask id="mask2_1671_74" style="mask-type:luminance" maskUnits="userSpaceOnUse" x="69" y="0" width="34" height="12">
<path d="M69.5742 2.8125L101.335 0.03125L102.121 8.96354L70.3555 11.7448L69.5742 2.8125Z" fill="white"/>
</mask>
<g mask="url(#mask2_1671_74)">
<path d="M101.626 1.5625C101.599 2.34896 101.157 2.93229 100.787 3.55208C100.079 4.72396 99.3443 5.86979 98.4432 6.91146C97.3182 8.21875 95.9276 9.125 94.2818 9.59375C93.5318 9.80729 92.7609 9.96354 91.9901 10.026C90.438 10.1562 88.9172 9.92708 87.4276 9.44271C85.9015 8.94271 84.5161 8.14583 83.0786 7.46354C81.5109 6.71354 79.8859 6.11979 78.1515 5.9375C75.9484 5.70833 73.9901 6.27083 72.339 7.80729C71.6255 8.46354 70.9432 9.14063 70.563 10.0625C70.4901 10.2396 70.4276 10.4115 70.2922 10.5833C70.2818 10.526 70.2453 10.4635 70.2505 10.4063C70.438 9.45312 70.5474 8.46875 70.8443 7.54167C71.3703 5.91146 72.2401 4.46875 73.7297 3.51042C74.5057 3.01042 75.3755 2.72917 76.2505 2.49479C76.9432 2.30208 77.6463 2.14062 78.3651 2.06771C79.912 1.92708 81.4328 2.16146 82.8755 2.71354C84.412 3.30729 85.9224 3.97396 87.4432 4.59896C89.0109 5.24479 90.6463 5.625 92.3286 5.81771C93.3911 5.93229 94.4484 5.89583 95.5057 5.75521C96.2505 5.66146 96.938 5.34375 97.5057 4.86979C98.4484 4.08333 99.339 3.23958 100.235 2.40104C100.646 2.03125 101.053 1.6875 101.626 1.5625Z" fill="#E60012"/>
</g>
</g>
</g>
<mask id="mask3_1671_74" style="mask-type:luminance" maskUnits="userSpaceOnUse" x="160" y="0" width="12" height="12">
<path d="M160.375 0H171.927V11.9531H160.375V0Z" fill="white"/>
</mask>
<g mask="url(#mask3_1671_74)">
<path d="M171.698 5.97396C171.698 8.92187 169.297 11.3229 166.354 11.3229C163.406 11.3229 161.005 8.92187 161.005 5.97396C161.005 3.03125 163.406 0.630208 166.354 0.630208C169.297 0.630208 171.698 3.03125 171.698 5.97396ZM171.859 3.65104C171.557 2.9375 171.13 2.29687 170.578 1.75C170.031 1.19792 169.391 0.770833 168.677 0.46875C167.943 0.15625 167.156 0 166.354 0C165.547 0 164.76 0.15625 164.026 0.46875C163.312 0.770833 162.672 1.19792 162.125 1.75C161.578 2.29687 161.146 2.9375 160.844 3.65104C160.531 4.38542 160.375 5.17187 160.375 5.97396C160.375 6.78125 160.531 7.56771 160.844 8.30208C161.146 9.01562 161.578 9.65625 162.125 10.2031C162.672 10.75 163.312 11.1823 164.026 11.4844C164.76 11.7969 165.547 11.9531 166.354 11.9531C167.156 11.9531 167.943 11.7969 168.677 11.4844C169.391 11.1823 170.031 10.75 170.578 10.2031C171.13 9.65625 171.557 9.01562 171.859 8.30208C172.172 7.56771 172.328 6.78125 172.328 5.97396C172.328 5.17187 172.172 4.38542 171.859 3.65104Z" fill="black"/>
</g>
</svg>
